<svg width="749" height="794" viewBox="0 0 749 794" fill="none" xmlns="http://www.w3.org/2000/svg">
<path d="M375.5 0.5H748.5V210C748.5 313.001 665.001 396.5 562 396.5C458.999 396.5 375.5 313.001 375.5 210V0.5Z" fill="#131313" stroke="#444444"/>
<path d="M376.5 793.5H3.5V584C3.5 480.999 86.9989 397.5 190 397.5C293.001 397.5 376.5 480.999 376.5 584V793.5Z" fill="#131313" stroke="#444444"/>
<path d="M0.5 0.5H175C285.181 0.5 374.5 89.8192 374.5 200V396.5H0.5V0.5Z" fill="#131313" stroke="#444444"/>
<path d="M748.5 793.5H574C463.819 793.5 374.5 704.181 374.5 594V397.5H748.5V793.5Z" fill="#131313" stroke="#444444"/>
</svg>
